<svg
xmlns="http://www.w3.org/2000/svg"
width="44"
height="45"
fill="none"
viewBox="0 0 44 45"
>
<ellipse cx="22" cy="22.5" fill="#F5FFFC" rx="22" ry="22"></ellipse>
<path
fill="#000"
d="M9.754 27.594c-.096 0-.165-.022-.208-.065-.044-.044-.065-.109-.065-.195v-6.39c0-.164.069-.246.208-.246h1.522c.139 0 .208.073.208.22v.768c0 .053.018.087.052.105.044.008.087-.013.13-.065.174-.235.37-.438.586-.612.226-.174.455-.308.69-.403.234-.096.455-.143.663-.143.312 0 .469.073.469.22v1.51c0 .139-.066.195-.196.17a2.23 2.23 0 00-.481-.079 4.164 4.164 0 00-.43-.026c-.155 0-.32.03-.494.091a1.59 1.59 0 00-.455.26 1.657 1.657 0 00-.338.365.737.737 0 00-.13.416v3.8c0 .199-.113.299-.339.299H9.754zm8.225.13c-.685 0-1.292-.152-1.821-.456a3.255 3.255 0 01-1.223-1.249c-.295-.537-.443-1.149-.443-1.834 0-.72.152-1.35.456-1.887a3.27 3.27 0 011.249-1.275c.529-.304 1.128-.455 1.795-.455.703 0 1.315.156 1.835.468.52.304.924.729 1.21 1.275.295.538.443 1.158.443 1.86 0 .695-.148 1.31-.443 1.848-.295.53-.707.946-1.236 1.25-.52.303-1.128.455-1.822.455zm.013-1.327c.321 0 .59-.083.807-.247.217-.174.378-.43.482-.768.112-.338.169-.75.169-1.236 0-.512-.057-.933-.17-1.262-.104-.339-.264-.595-.48-.768-.218-.174-.487-.26-.808-.26-.312 0-.58.086-.806.26-.217.173-.382.43-.495.768-.113.33-.169.75-.169 1.262 0 .494.056.91.17 1.249.112.33.277.581.494.755.225.164.494.247.806.247zm7.776 1.327c-.685 0-1.292-.152-1.821-.456a3.255 3.255 0 01-1.223-1.249c-.295-.537-.443-1.149-.443-1.834 0-.72.152-1.35.456-1.887a3.27 3.27 0 011.249-1.275c.53-.304 1.128-.455 1.796-.455.702 0 1.314.156 1.834.468.52.304.924.729 1.21 1.275.295.538.443 1.158.443 1.86 0 .695-.148 1.31-.443 1.848-.295.53-.707.946-1.236 1.25-.52.303-1.128.455-1.822.455zm.014-1.327c.32 0 .59-.083.806-.247.217-.174.378-.43.482-.768.112-.338.169-.75.169-1.236 0-.512-.057-.933-.17-1.262-.103-.339-.264-.595-.48-.768-.218-.174-.486-.26-.807-.26-.313 0-.582.086-.807.26-.217.173-.382.43-.495.768-.112.33-.169.75-.169 1.262 0 .494.057.91.17 1.249.112.33.277.581.494.755.225.164.494.247.806.247zm7.286-4.32c-.095 0-.143.052-.143.156v3.136c0 .295.07.507.208.637.14.122.36.183.664.183h.703c.06 0 .108.021.143.065a.242.242 0 01.052.156l-.013.793c0 .165-.096.27-.287.313a32.67 32.67 0 01-.507.052l-.533.026h-.508c-.59 0-1.058-.139-1.405-.417-.347-.286-.52-.707-.52-1.262v-3.643c0-.13-.057-.195-.17-.195h-.793c-.165 0-.248-.074-.248-.221v-.963c0-.13.079-.195.235-.195h.897c.079 0 .122-.048.13-.143l.183-1.978c.008-.148.073-.221.195-.221h1.418c.139 0 .208.082.208.247v1.951c0 .087.044.13.13.13h1.367c.156 0 .234.07.234.209v.963c0 .147-.087.22-.26.22h-1.38z"
></path>
</svg>